<?xml version="1.0" encoding="UTF-8" standalone="no"?>
<svg
   xmlns:dc="http://purl.org/dc/elements/1.1/"
   xmlns:cc="http://creativecommons.org/ns#"
   xmlns:rdf="http://www.w3.org/1999/02/22-rdf-syntax-ns#"
   xmlns:svg="http://www.w3.org/2000/svg"
   xmlns="http://www.w3.org/2000/svg"
   xmlns:sodipodi="http://sodipodi.sourceforge.net/DTD/sodipodi-0.dtd"
   xmlns:inkscape="http://www.inkscape.org/namespaces/inkscape"
   version="1.1"
   id="Layer_1"
   x="0px"
   y="0px"
   viewBox="0 0 1280 995.09998"
   enable-background="new 0 0 1280 995"
   xml:space="preserve"
   sodipodi:docname="interviewguys.svg"
   width="1280"
   height="995.09998"
   inkscape:version="0.92.1 r15371"><metadata
   id="metadata8958"><rdf:RDF><cc:Work
       rdf:about=""><dc:format>image/svg+xml</dc:format><dc:type
         rdf:resource="http://purl.org/dc/dcmitype/StillImage" /><dc:title></dc:title></cc:Work></rdf:RDF></metadata><defs
   id="defs8956" /><sodipodi:namedview
   pagecolor="#ffffff"
   bordercolor="#666666"
   borderopacity="1"
   objecttolerance="10"
   gridtolerance="10"
   guidetolerance="10"
   inkscape:pageopacity="0"
   inkscape:pageshadow="2"
   inkscape:window-width="1366"
   inkscape:window-height="706"
   id="namedview8954"
   showgrid="false"
   inkscape:snap-global="false"
   fit-margin-top="0"
   fit-margin-left="0"
   fit-margin-right="0"
   fit-margin-bottom="0"
   inkscape:zoom="0.24007316"
   inkscape:cx="484.09693"
   inkscape:cy="229.29823"
   inkscape:window-x="-8"
   inkscape:window-y="-8"
   inkscape:window-maximized="1"
   inkscape:current-layer="g8951" />

<g
   id="g8951">
	
	
	
	
	
	
	
	
	
	
	
	
	
	
	
	
	
	
	
	
	
	
	
	
	
	
	
	
	
	
	
	
	
	
	
	
	
	
	
	
	
	
	
	
	
	
	
	
<g
   id="g9612"><rect
     id="rect8853"
     height="995"
     width="1280"
     style="fill:#80d2dc"
     x="0"
     y="0" /><path
     id="path8855"
     d="m 1018.55,127.38 c 14.52,-1.45 29.02,0.64 43.42,2.41 15.89,2.52 31.49,6.58 46.8101,11.45 3.83,1.34 7.4399,3.24 11.22,4.71 17.47,6.83 33.48,17.15 47.42,29.65 11.61,10.28 20.23,23.31 28.9099,36.03 5.4801,8.43 11.13,17.25 12.5601,27.41 1.4399,10.29 4,20.51 3.58,30.96 0.1901,11.68 -2.3199,23.13 -3.9199,34.63 -2.55,12.53 -5.53,25.17 -11.3301,36.66 -3.72,7.85 -7.46,15.7 -11.5599,23.36 -8.64,18.22 -20.6901,34.46 -31.9501,51.09 -4.86,6.69 -8.51,14.17 -13.6799,20.65 -8.85,-4.26 -17.4601,-8.98 -26.3101,-13.23 -5.24,-2.88 -10.9399,-5.42 -14.9099,-10.05 9.47,-9.01 19.85,-17.78 25.2999,-29.99 5.79,-10.65 7.4301,-23.16 5.8101,-35.09 -1.6001,-11.81 -11.24,-20.46 -21.38,-25.56 -10.76,-5.45 -23.66,-6.11 -35.02,-2.16 -10.7001,2.75 -19.25,11.14 -24.2001,20.77 -5.6799,-1 -10.97,-3.44 -15.73,-6.65 -3.47,-2.38 -7.64,-3.73 -10.6899,-6.68 -0.73,-1.45 -0.33,-3.13 -0.34,-4.67 1.33,-16.52 -0.99,-33.15 1.25,-49.63 -4.48,-0.81 -8.81,-2.26 -12.88,-4.26 -5.24,-2.54 -11.08,-3.45 -16.39,-5.75 -1.74,-0.61 -1.5099,-2.69 -2.0099,-4.11 5.91,-3.17 11.77,-6.48 16.81,-10.96 -9.56,-1.33 -19.23,-0.91 -28.82,-1.68 -14.63,-1.49 -29.36,-0.03 -44.01,-1.07 8.16,-10.25 17.02,-19.91 26.5,-28.95 -3.86,1.51 -7.5,3.56 -11.52,4.64 -6.05,1.56 -11.52,4.69 -17.34,6.87 -10.73,4.05 -20.95,9.87 -32.35,11.8 -7.8,-0.61 -15.88,-2.56 -21.81,-7.96 -12.37,-9.56 -16.64,-26 -16.86,-40.97 -0.16,-14.16 2.47,-29.29 11.98,-40.34 2,5.43 1.95,11.85 5.69,16.51 4.77,3.85 10.98,6.43 17.21,5.93 3.93,-0.28 7.86,-0.81 11.74,-1.57 7.82,-1.61 14.81,-5.63 22.01,-8.89 6.95,-4.8 14.16,-9.21 21.39,-13.58 10.0099,-6.02 21.11,-9.81 31.93,-14.06 10.7997,-3.85 21.9897,-6.87 33.4697,-7.67 z"
     inkscape:connector-curvature="0"
     style="fill:#313131;stroke:#313131;stroke-width:0.2" /><path
     id="path8857"
     d="m 248.16,145.21 c 8.63,-1.56 17.41,-1.85 26.13,-2.64 9.57,-0.83 19.17,-0.12 28.71,0.73 24.04,2.66 46.28,13.39 66.38,26.35 16.19,11.17 31.93,23.1 46.06,36.81 6.81,8.07 11.65,17.6 16.05,27.15 4.85,10.61 6.07,22.31 8.22,33.65 1.59,8.89 2.37,17.88 3.29,26.85 0.46,4.39 -1.4,8.53 -2,12.81 -1.17,7.74 -2.66,15.52 -5.7,22.78 -9.48,1.34 -18.6,4.48 -28.15,5.44 -14.85,3.1 -30.07,1.25 -45.04,0.19 -11.38,-0.66 -22.71,-2.12 -33.88,-4.37 3.83,-7.26 7.65,-14.58 10.39,-22.34 2.87,-8.33 6.88,-16.35 8.08,-25.17 -4.08,3.68 -7.43,8.03 -11.1,12.09 -9.5,10.17 -18.71,20.77 -29.92,29.14 -5.97,4.42 -11.91,9.06 -18.71,12.15 -4.57,-3.98 -8.32,-8.88 -13.18,-12.53 -9.43,-6 -20.33,-10.6 -31.69,-10.15 -10.8,2.01 -21.81,8.16 -26.36,18.62 -5.26,9.41 -5.46,20.61 -4.51,31.07 2.25,11.76 9.36,21.61 15.19,31.8 -16.81,5.61 -31.76,15.26 -47.47,23.24 -7.66,3.68 -14.69,8.49 -22.2,12.43 -2.32,-7.88 -8.53,-13.58 -12.43,-20.61 -8.3,-14.42 -17.43,-28.37 -24.56,-43.42 -3.62,-8.43 -5.45,-17.49 -9.1,-25.9 -10.1,-28.76 -7.13,-61.04 5,-88.72 3.01,-6.79 5.9,-13.71 10.13,-19.87 5.95,-9.9 12.2,-19.63 19.04,-28.94 4,-5.6 9.14,-10.24 14.09,-14.97 14.43,-12.23 29.71,-23.71 46.69,-32.16 6.21,-2.48 12.12,-5.73 18.61,-7.46 7.79,-2.35 15.97,-2.62 23.94,-4.05 z"
     inkscape:connector-curvature="0"
     style="fill:#4d403b;stroke:#4d403b;stroke-width:0.2" /><path
     id="path8859"
     d="m 951.49,221.31 c 4.02,-1.08 7.66,-3.13 11.52,-4.64 -9.48,9.04 -18.34,18.7 -26.5,28.95 14.65,1.04 29.38,-0.42 44.01,1.07 9.59,0.77 19.26,0.35 28.82,1.68 -5.04,4.48 -10.9,7.79 -16.81,10.96 0.5,1.42 0.27,3.5 2.0099,4.11 5.31,2.3 11.15,3.21 16.39,5.75 4.07,2 8.4,3.45 12.88,4.26 -2.24,16.48 0.08,33.11 -1.25,49.63 0.01,1.54 -0.39,3.22 0.34,4.67 3.0499,2.95 7.22,4.3 10.6899,6.68 4.76,3.21 10.05,5.65 15.73,6.65 4.9501,-9.63 13.5,-18.02 24.2001,-20.77 11.36,-3.95 24.26,-3.29 35.02,2.16 10.14,5.1 19.7799,13.75 21.38,25.56 1.62,11.93 -0.02,24.44 -5.8101,35.09 -5.45,12.21 -15.83,20.98 -25.2999,29.99 3.97,4.63 9.6699,7.17 14.9099,10.05 8.85,4.25 17.4601,8.97 26.3101,13.23 -2.52,10.61 -0.88,21.69 1.48,32.18 1.95,6.92 3.5699,14.32 8.17,20.05 -6.04,6.59 -14.4501,9.96 -22.26,13.89 -9.88,5.13 -20.3101,9.07 -30.54,13.39 -9.23,3.08 -17.89,8.13 -27.75,8.95 -2.86,-7.43 -7.35,-14.05 -10.91,-21.13 -4.38,-7.47 -8.0599,-15.55 -14.09,-21.87 -1.25,-1.54 -3.34,-1.31 -5.08,-1.18 -18.0601,2.17 -36.36,0.98 -54.34,-1.4 -12.83,-1.77 -25.41,-5.32 -37.15,-10.82 -7.16,-3.38 -14.83,-5.97 -21.21,-10.79 -10.29,-8.26 -19.2599,-18.54 -24.04,-30.98 -3.2,-5.87 -1.49,-12.57 -0.62,-18.78 0.85,-8.64 1.48,-17.3 2.42,-25.93 0.66,-8.27 2.08,-16.64 0.64,-24.91 -0.81,-5.37 -4.48,-9.66 -6.04,-14.77 -6.33,-21.83 -6.41,-44.78 -5.81,-67.31 0.48,-12.14 4.2599,-23.86 8.9,-35 11.4,-1.93 21.62,-7.75 32.35,-11.8 5.8201,-2.18 11.2901,-5.31 17.3401,-6.87 z"
     inkscape:connector-curvature="0"
     style="fill:#fbdcce;stroke:#fbdcce;stroke-width:0.2" /><path
     id="path8861"
     d="m 335.6,295.54 c 3.67,-4.06 7.02,-8.41 11.1,-12.09 -1.2,8.82 -5.21,16.84 -8.08,25.17 -2.74,7.76 -6.56,15.08 -10.39,22.34 11.17,2.25 22.5,3.71 33.88,4.37 14.97,1.06 30.19,2.91 45.04,-0.19 9.55,-0.96 18.67,-4.1 28.15,-5.44 -4.48,16.18 -13.98,30.19 -21.45,45.04 -2.67,5.55 -7.57,9.83 -9.33,15.84 -1.62,5.12 -3.04,10.32 -4.35,15.53 -2.69,12.83 -6.49,25.45 -11.46,37.58 -2.82,7.03 -7.89,12.76 -11.76,19.19 -1.87,3.07 -4,6.01 -6.74,8.37 -10.24,8.62 -21.41,16.6 -34.35,20.56 -11.34,3.37 -22.97,6.86 -34.94,6.11 -15.8,-1.01 -31.47,-3.98 -46.73,-8.13 -3.61,-0.94 -7.16,-2.38 -10.92,-2.52 -2.89,1.35 -4.46,4.33 -6.11,6.9 -5.16,8.92 -9.66,18.29 -12.39,28.26 -6.15,-2.7 -12.11,-5.81 -17.79,-9.4 -9.89,-6.33 -20.05,-12.33 -29,-20.01 -7.19,-6.2 -15.66,-10.9 -22.26,-17.78 -1.94,-1.65 -1.2,-4.28 -0.79,-6.42 3.32,-12.16 4.37,-25.1 1.82,-37.51 7.51,-3.94 14.54,-8.75 22.2,-12.43 15.71,-7.98 30.66,-17.63 47.47,-23.24 -5.83,-10.19 -12.94,-20.04 -15.19,-31.8 -0.95,-10.46 -0.75,-21.66 4.51,-31.07 4.55,-10.46 15.56,-16.61 26.36,-18.62 11.36,-0.45 22.26,4.15 31.69,10.15 4.86,3.65 8.61,8.55 13.18,12.53 6.8,-3.09 12.74,-7.73 18.71,-12.15 11.21,-8.37 20.42,-18.97 29.92,-29.14 z"
     inkscape:connector-curvature="0"
     style="fill:#f8c5b0;stroke:#f8c5b0;stroke-width:0.2" /><path
     id="path8863"
     d="m 149.42,469.36 c 1.81,-0.39 3.67,-0.42 5.51,-0.54 -0.41,2.14 -1.15,4.77 0.79,6.42 6.6,6.88 15.07,11.58 22.26,17.78 8.95,7.68 19.11,13.68 29,20.01 5.68,3.59 11.64,6.7 17.79,9.4 7.07,3.51 14.58,6.01 21.74,9.35 -3.68,5.59 -8.32,10.47 -12.01,16.04 -6.45,-2.97 -13.65,-3.96 -19.87,-7.45 -16.93,-9.83 -34.27,-19.17 -49.73,-31.27 -9.14,-7.71 -18.43,-16.08 -23.35,-27.23 2.62,-4.16 4.34,-9 7.87,-12.51 z"
     inkscape:connector-curvature="0"
     style="fill:#ffffff;stroke:#ffffff;stroke-width:0.2" /><path
     style="fill:#c9c26b;fill-opacity:1;stroke:#f7a38f;stroke-width:0.2"
     id="path8865"
     d="m 93.14,561.08 c 14.54,-27.35 33.35,-52.15 48.41,-79.21 4.92,11.15 14.21,19.52 23.35,27.23 15.46,12.1 32.8,21.44 49.73,31.27 6.22,3.49 13.42,4.48 19.87,7.45 -4.59,8.18 -9.93,15.89 -14.47,24.1 5.44,6.7 10.04,14.13 12.6,22.43 3.78,12.14 8.05,24.22 10.18,36.79 3.22,25.04 8.72,49.72 14.66,74.24 1.95,6.54 3.95,13.11 6.83,19.32 1.9,4.2 5.62,7.16 9.49,9.48 6.97,4.21 14.06,8.26 21.53,11.53 15.47,6.48 30.48,14.06 46.23,19.89 9.59,3.77 19.43,6.84 29.32,9.71 7.62,2.62 15.44,4.56 23.25,6.5 0.6,6.41 2.18,12.77 1.6,19.25 -0.49,13.56 -6.03,26.17 -11.16,38.51 -3.84,8.57 -7.47,17.64 -14.55,24.12 -18.19,-2.18 -36.12,-6.04 -54.12,-9.32 -18.06,-3.92 -36.19,-7.75 -53.74,-13.61 -7.25,-2.33 -14.8,-3.5 -22.27,-4.9 0.72,16.2 4.93,32.14 11.34,47 5.32,12.21 11.26,24.17 18.26,35.51 -17.93,25.59 -36.16,50.97 -53.99,76.63 H 89.24 C 78.02,969.91 70.17,943.48 63.07,916.98 57.1,894.56 50.65,872.16 47.84,849.06 46.58,837.31 43.95,825.74 43.3,813.92 c -1.01,-15.75 -2.95,-31.54 -1.82,-47.34 -0.02,-12.48 -0.56,-25.09 1.65,-37.44 2.42,-13.43 3.86,-27.03 6.64,-40.4 2.88,-17.08 7.49,-33.82 12.62,-50.35 7.24,-20.1 15.01,-40.01 21.95,-60.22 2.02,-6.13 5.6,-11.53 8.8,-17.09 z"
     inkscape:connector-curvature="0" /><path
     id="path8867"
     d="m 1127.42,502.51 c 7.8099,-3.93 16.22,-7.3 22.26,-13.89 2.23,2.55 4.0699,5.45 5.0399,8.72 2.77,8.53 6.76,16.58 10.6801,24.63 -5.65,2.4901 -11.48,4.6 -16.9301,7.5 -8.22,4.85 -16.9099,8.89 -24.85,14.2 -15.01,11.01 -30.5,22.09 -41.5,37.39 -6.6,8.47 -11.59,18.05 -16.33,27.65 -3,7.65 -6.79,14.96 -10.02,22.5 0.01,-3.47 -0.5601,-6.9 -1.26,-10.28 -0.42,-8.29 -0.04,-16.6 0.09,-24.89 0.16,-2.2599 0.34,-4.52 0.53,-6.77 3.1,-1.91 5.4301,-4.72 7.49,-7.67 3.27,-4.66 7.45,-8.56 11.71,-12.28 1.3401,-1.19 3.1001,-1.68 4.7301,-2.37 -2.5801,-10.58 -6.55,-20.8 -8.5,-31.54 -0.7001,-3.58 -2.02,-6.99 -3.3701,-10.36 0.4801,-0.05 1.4501,-0.15 1.9401,-0.2 9.86,-0.8199 18.52,-5.87 27.75,-8.95 10.23,-4.32 20.66,-8.26 30.54,-13.39 z"
     inkscape:connector-curvature="0"
     style="fill:#ffffff;stroke:#ffffff;stroke-width:0.2" /><path
     id="path8869"
     d="m 1056.47,520.26 c 4.38,-1.95 7.13,3.25 10.72,4.79 1.3501,3.37 2.67,6.78 3.3701,10.36 1.95,10.7401 5.9199,20.96 8.5,31.54 -1.63,0.69 -3.39,1.18 -4.7301,2.37 -4.26,3.72 -8.4399,7.62 -11.71,12.28 -2.0599,2.95 -4.39,5.76 -7.49,7.67 -0.1901,2.25 -0.37,4.51 -0.53,6.77 -1.23,2.46 -1.8099,5.18 -1.6699,7.94 0.1599,5.67 -0.77,11.59 1.58,16.95 0.7,3.38 1.27,6.81 1.26,10.28 -5.98,16.2599 -10.97,32.99 -12.7001,50.29 -8.6,-5.59 -16.7599,-11.81 -25.1899,-17.64 0.25,-4.4 1.51,-8.63 2.22,-12.95 2.58,-23.1299 5.42,-47.12 17.0801,-67.73 1.0199,-2.36 3.85,-2.06 5.96,-2.56 0.47,-4.88 0.62,-9.77 0.8099,-14.66 0.4501,-11.05 4.2001,-21.55 6.9501,-32.16 1.4798,-4.63 2.5498,-9.63 5.5698,-13.54 z"
     inkscape:connector-curvature="0"
     style="fill:#f23f42;stroke:#f23f42;stroke-width:0.2" /><path
     id="path8871"
     d="m 1148.47,529.47 c 5.4501,-2.9 11.28,-5.0099 16.9301,-7.5 8.1899,15.17 15.9399,30.61 23.09,46.3 6.9,19.47 14.6,38.67 20.74,58.41 6.03,19.5 12.22,38.96 17.42,58.69 2.11,8.45 3.34,17.09 5.45,25.53 3.64,13.73 2.62,28.05 2.91,42.1 0.7,24 -1.5,48.07 -6.52,71.55 -5.3199,29.26 -11.72,58.42 -21.23,86.63 -6.86,21.43 -16.45,41.82 -24.23,62.91 -2.77,7.08 -5.4401,14.2599 -9.1801,20.91 h -113.36 c -3.86,-7.08 -8.95,-13.36 -13.51,-19.98 -23.43,-33.3 -47.07,-66.46 -70.42,-99.81 8.04,-8.86 14.68,-18.9 20.32,-29.43 4.7,-7.8 7.08,-16.65 9.73,-25.28 2.94,-8.56 4.65,-17.46 6.77,-26.23 1.85,-7.42 2.09,-15.14 4.32,-22.46 -2.03,-2.15 -4.09,-4.28 -6.26,-6.26 -6.83,-6.35 -14.84,-11.18 -22.44,-16.51 -11.03,-7.71 -21.97,-15.56 -33.39,-22.68 1.23,-1.37 2.62,-2.71 3.17,-4.52 7.71,-22.65 14.5,-45.81 26.04,-66.9 1.55,-2.9 3.71,-5.4 5.72,-7.98 10.14,3.69 18.51,10.9 27.34,16.9 8.4301,5.83 16.59,12.05 25.1899,17.64 1.7301,-17.3 6.7201,-34.03 12.7001,-50.29 3.23,-7.54 7.02,-14.85 10.02,-22.5 4.74,-9.6 9.73,-19.18 16.33,-27.65 11,-15.3 26.49,-26.38 41.5,-37.39 7.9401,-5.31 16.63,-9.35 24.85,-14.2 z"
     inkscape:connector-curvature="0"
     style="fill:#315385;stroke:#315385;stroke-width:0.2" /><path
     id="path8873"
     d="m 782.26,535.16 c 8.77,-4.94 18.8,-6.93 28.71,-8.0099 15.16,-1.13 30.08,4.8199 41.94,13.98 3.66,2.82 5.34,7.28 7.48,11.21 -4.15,3.52 -9.06,7.66 -8.94,13.6299 0.09,7 2.82,14.7401 9.21,18.3701 6.03,3.97 13.15,5.78 20.29,6.33 0,3.8 -0.6,8.17 -4.21,10.28 -4.09,0.2 -7.81,-1.88 -11.61,-3.06 -13.32,-4.75 -27.93,-3.5 -41.41,-0.1 -11.48,3.05 -22.29,8.83 -31.0099,16.92 -6.91,6.4 -8.47,16.38 -9.1,25.32 -0.74,7.24 3.86,13.37 7.92,18.86 -1.1201,1.35 -1.55,3.98 -3.7401,3.82 -8.95,-0.07 -18.04,-2.12 -25.77,-6.7401 -8.38,-4.6 -16.44,-11.81 -18.35,-21.59 -2.55,-9.58 -0.96,-20.2 3.93,-28.76 7.7401,-9.83 16.64,-19.24 27.71,-25.31 9.52,-5.18 20.56,-6.05 31.15,-7.04 -0.26,-2.38 -0.43,-4.77 -0.9,-7.12 -6.26,-0.84 -12.52,0.87 -18.79,0.34 -5.12,-0.44 -10.97,-0.58 -14.86,-4.41 -4.79,-4.64 -4.72,-12.39 -1.89,-18.04 2.75,-4.41 7.87,-6.44 12.24,-8.88 z"
     inkscape:connector-curvature="0"
     style="fill:#f3c1ad;stroke:#f3c1ad;stroke-width:0.2" /><path
     id="path8875"
     d="m 860.39,552.34 c 7.55,-5.14 17.35,-5.89 26.07,-3.84 7.77,1.86 15.73,3.45 22.89,7.14 5.48,2.8 11.05,5.48 16.37,8.6 3.69,2.18 7.69,4.15 10.36,7.64 5.04,6.51 10.63,12.93 13.07,20.97 4.29,13.84 5.08,28.48 4.83,42.88 -1.63,5.08 -4.67,9.51 -6.96,14.28 -6.81,13.8 -13.09,27.87 -18.85,42.14 -0.63,1.33 -1.33,2.68 -2.4,3.72 -5.71,-0.2 -11.25,-1.88 -16.94,-2.29 -8.03,-0.64 -16.08,-0.96 -24.11,-1.62 -17.64,-1.36 -35.3199,-4.36 -51.8,-10.96 -10.29,-3.04 -19.64,-8.34 -29.55,-12.33 -4.74,-2.15 -8.31,-6.09 -11.84,-9.78 -4.0601,-5.49 -8.66,-11.62 -7.92,-18.86 0.63,-8.94 2.19,-18.92 9.1,-25.32 8.72,-8.09 19.53,-13.87 31.0099,-16.92 13.48,-3.4 28.09,-4.65 41.41,0.1 3.8,1.18 7.52,3.26 11.61,3.06 3.61,-2.11 4.21,-6.48 4.21,-10.28 -7.14,-0.55 -14.26,-2.36 -20.29,-6.33 -6.39,-3.63 -9.12,-11.3701 -9.21,-18.3701 C 851.33,560 856.24,555.86 860.39,552.34 Z"
     inkscape:connector-curvature="0"
     style="fill:#fbdcce;stroke:#fbdcce;stroke-width:0.2" /><path
     id="path8881"
     d="m 1052.9301,603.98 c -0.14,-2.76 0.4399,-5.48 1.6699,-7.94 -0.13,8.29 -0.51,16.6 -0.09,24.89 -2.35,-5.36 -1.42,-11.28 -1.5799,-16.95 z"
     inkscape:connector-curvature="0"
     style="fill:#f02527;stroke:#f02527;stroke-width:0.2" /><path
     sodipodi:nodetypes="sccccccccccccccs"
     inkscape:connector-curvature="0"
     style="fill:#f3c1ad;fill-opacity:1"
     id="path8883"
     d="m 440.53817,619.79184 c -2.62704,0.028 -5.25196,0.12484 -7.87696,0.33984 -11.62,1.77 -22.41074,11.86902 -33.93074,14.08902 -4.78,4.1201 -10.20977,7.41 -15.00977,11.5 -4.51,3.83 -7.71133,9.22899 -13.11132,11.95899 -0.26,5.22 -0.77032,10.61969 0.92968,15.67969 3.98,11.84 7.57188,23.88093 12.92188,35.21093 5.4,10.22 13.17937,20.61008 24.85937,23.83008 9.33574,-2.12093 18.13004,-5.88028 27.06641,-9.1875 0.9868,0.21883 1.97607,0.43562 2.96094,0.6582 4.51,1.05 9.13023,1.48039 13.74023,1.90039 13.71,1.86 27.82969,0.74875 40.92969,-3.78125 5.7,-2.4 11.0514,-5.57937 15.9414,-9.35937 64.44535,-48.28482 38.28322,-66.29258 -9.27148,-82.82031 -5.54,-0.12 -11.07914,-0.0703 -16.61914,-0.0703 -7.8825,0.1275 -35.6491,-10.0323 -43.53019,-9.94839 z" /><path
     id="path8885"
     d="m 953.98,635.73 c 3.32,-0.5 6.75,-0.7 10.05,0.17 9.3799,2.19 17.93,6.83 26.5099,11.06 -2.0099,2.58 -4.17,5.08 -5.72,7.98 -11.54,21.09 -18.33,44.25 -26.04,66.9 -0.55,1.81 -1.94,3.15 -3.17,4.52 -5.17,-3.6 -10.44,-7.12 -16.07,-9.95 -2.33,-1.2 -4.82,0.19 -6.97,1.1 -3.65,1.72 -7.65,2.45 -11.43,3.78 -4.73,1.44 -9.25,3.64 -14.19,4.3 -7.77,-10.95 -16.39,-21.46 -22.23,-33.63 8.03,0.66 16.08,0.98 24.11,1.62 5.69,0.41 11.23,2.09 16.94,2.29 1.07,-1.04 1.77,-2.39 2.4,-3.72 5.76,-14.27 12.04,-28.34 18.85,-42.14 2.2901,-4.77 5.3301,-9.2 6.9601,-14.28 z"
     inkscape:connector-curvature="0"
     style="fill:#ffffff;stroke:#ffffff;stroke-width:0.2" /><path
     id="path8887"
     d="m 358.93,662.01 c 3.68,-1.96 7.67,-3.2 11.68,-4.33 -0.26,5.22 -0.77,10.62 0.93,15.68 3.98,11.84 7.57,23.88 12.92,35.21 5.4,10.22 13.18,20.61 24.86,23.83 -4.58,1.67 -8.91,3.91 -13.26,6.1 -8.03,-2.43 -12.37,-10.13 -17.33,-16.25 -7.88,-13.01 -15.11,-26.57 -19.82,-41.09 -1.83,-6.24 -1.11,-12.85 0.02,-19.15 z"
     inkscape:connector-curvature="0"
     style="fill:#ffffff;stroke:#ffffff;stroke-width:0.2" /><path
     style="fill:#b4ac4b;fill-opacity:1;stroke:#d28a79;stroke-width:0.2"
     id="path8889"
     d="m 300,685.97 c 19.82,-7.5099 39.83,-14.6899 58.93,-23.96 -1.13,6.3 -1.85,12.91 -0.02,19.15 4.71,14.52 11.94,28.08 19.82,41.09 4.96,6.12 9.3,13.82 17.33,16.25 -9.96,4.46 -19.55,9.71 -29.61,13.98 -8.68,3.64 -16.29,9.32 -24.9,13.12 -15.75,-5.83 -30.76,-13.41 -46.23,-19.89 -7.47,-3.27 -14.56,-7.32 -21.53,-11.53 -3.87,-2.32 -7.59,-5.28 -9.49,-9.48 -2.88,-6.21 -4.88,-12.78 -6.83,-19.32 13.34,-8.14 28.08,-13.6 42.53,-19.41 z"
     inkscape:connector-curvature="0" /><path
     id="path8891"
     d="m 932.57,717.51 c 2.15,-0.91 4.64,-2.3 6.97,-1.1 5.63,2.83 10.9,6.35 16.07,9.95 11.42,7.12 22.36,14.97 33.39,22.68 7.6,5.33 15.61,10.16 22.44,16.51 -9.63,6.03 -19.59,13.04 -31.37,13.41 -7.28,0.19 -15.06,0.03 -21.68,-3.28 -19.61,-13.9 -36.66,-31.18 -51.44,-50.09 4.94,-0.66 9.46,-2.86 14.19,-4.3 3.78,-1.33 7.78,-2.06 11.43,-3.78 z"
     inkscape:connector-curvature="0"
     style="fill:#213858;stroke:#213858;stroke-width:0.2" /><path
     id="path8893"
     d="m 388.57,754.85 c 8.08,-1.38 16.28,-0.61 24.43,-0.77 53.33,0 106.67,0 160,0 16.78,0.09 33.56,-0.28 50.33,0.41 -3.86,0.36 -7.72,0.83 -11.59,1.02 -68.91,-0.22 -137.83,-0.03 -206.74,-0.09 -5.48,-0.02 -10.99,0.27 -16.43,-0.57 z"
     inkscape:connector-curvature="0"
     style="fill:#8dedfa;stroke:#8dedfa;stroke-width:0.2" /><path
     id="path8895"
     d="m 383.66,756.65 c 0.97,-1.78 3.19,-1.56 4.91,-1.8 5.44,0.84 10.95,0.55 16.43,0.57 68.91,0.06 137.83,-0.13 206.74,0.09 27.75,0.64 55.51,0.17 83.26,0.31 65.64,-0.02 131.28,-0.01 196.92,0.2 5.68,7.1 10.66,14.72 15.95,22.12 22.96,32.31 45.67,64.81 68.69,97.07 23.35,33.35 46.99,66.5099 70.42,99.81 4.5601,6.62 9.65,12.9 13.51,19.98 h -845 c 17.83,-25.66 36.06,-51.04 53.99,-76.63 11.78,-16.54 23.41,-33.18 35.19,-49.72 3.61,-4.86 6.45,-10.41 11.22,-14.28 18,3.28 35.93,7.14 54.12,9.32 6,0.38 11.87,1.99 17.87,2.29 2.45,0.36 3.06,-2.54 4.15,-4.12 12.2,5.34 25.33,7.81 38.25,10.73 4.51,1.05 9.13,1.48 13.74,1.9 -7.58,10.29 -13.23,21.81 -19.84,32.71 -6.8,12.22 -14.27,24.07 -20.77,36.45 7.57,0.42 15.13,-0.44 22.7,-0.23 -0.63,5.23 -1.19,10.47 -1.55,15.74 1.67,-0.16 3.34,-0.3 5.01,-0.48 9.9,-0.03 19.8,-0.5 29.7,-0.72 13.79,-0.12 27.58,-0.66 41.37,-1.21 9.87,-0.15 19.75,-0.53 29.63,-0.78 13.93,0.08 27.84,-1.12 41.78,-0.96 3.27,-0.02 6.49,0.62 9.72,1.15 47.29,6.88 94.52,14.16 141.85,20.76 0.52,-1.78 1.05,-3.55 1.61,-5.3 4.7,1.37 9.31,3.03 13.91,4.71 3.02,-8.53 5.08,-17.4 8.46,-25.79 1.62,-1.5 4.48,-0.2599 6.58,-0.62 -1.15,-3.37 -2.41,-6.71 -3.68,-10.02 2.13,-0.05 4.29,-0.03 6.44,-0.11 l 0.47,-0.7599 c -1.41,-5.8101 -4.18,-11.36 -4.34,-17.41 2.45,-9.84 3.53,-19.94 5.51,-29.87 4.06,-23.95 8.28,-47.86 12.3,-71.81 -3.21,-1.83 -6.42,-3.68 -9.57,-5.6 0.37,-2.14 0.58,-4.3 0.83,-6.44 -16.21,-5.39 -32.61,-10.2 -48.73,-15.85 -2.62,-3.48 -3.09,-8.03 -4.43,-12.07 -33.21,0.05 -66.41,0 -99.62,0.03 -7.35,-1.74 -14.9,-0.81 -22.36,-0.97 -21.33,-0.05 -42.67,0.05 -64,-0.05 -5.15,-0.19 -10.31,0.1 -15.4,0.91 -5.34,-0.32 -10.65,-0.97 -15.98,-1.37 0.65,-0.29 1.96,-0.86 2.61,-1.14 -9.07,-0.64 -18.16,-0.24 -27.24,-0.33 -8.41,0.12 -16.83,-0.31 -25.23,0.33 0.43,0.27 1.28,0.81 1.71,1.08 -11.62,1.77 -22.93,5.02 -34.45,7.2401 -5.03,-1.07 -9.87,-2.84 -14.9,-3.9 -7.81,-1.94 -15.63,-3.88 -23.25,-6.5 4.22,-6.2502 8.45,-12.5002 12.79,-18.6602 z"
     inkscape:connector-curvature="0"
     style="fill:#302a25;stroke:#302a25;stroke-width:0.2" /><path
     id="path8897"
     d="m 441.76,777.39 c 8.4,-0.64 16.82,-0.21 25.23,-0.33 9.08,0.09 18.17,-0.31 27.24,0.33 -0.65,0.28 -1.96,0.85 -2.61,1.14 -5.54,-0.1201 -11.08,-0.07 -16.62,-0.07 -10.51,0.17 -21.03,-0.85 -31.53,0.01 -0.43,-0.2699 -1.28,-0.8099 -1.71,-1.0799 z"
     inkscape:connector-curvature="0"
     style="fill:#131310;stroke:#131310;stroke-width:0.2" /><path
     id="path8899"
     d="m 443.47,778.47 c 10.5,-0.86 21.02,0.16 31.53,-0.01 5.54,0 11.08,-0.05 16.62,0.07 5.33,0.4 10.64,1.05 15.98,1.37 0.51,0.05 1.51,0.17 2.02,0.23 15.36,3.64 31.04,6.42 45.65,12.65 14.12,6.05 27.39,13.8799 40.38,22.04 7.8,4.52 15.3199,12.33 14.52,22.04 -2.38,1.78 -4.73,3.59 -7.3,5.08 -10.67,2.55 -21.27,-1.53 -30.84,-5.91 l -0.82,-0.3101 c -7.16,-3.03 -14.65,-5.11 -21.96,-7.71 -1.03,-0.1 -2.06,-0.14 -3.07,-0.17 0.07,-0.41 0.21,-1.22 0.29,-1.63 -3.03,-0.58 -6.05,-1.19 -9.06,-1.82 -1.17,-0.26 -2.33,-0.5 -3.48,-0.75 -1.64,-0.37 -3.27,-0.73 -4.89,-1.08 -6.37,14.76 -14.91,29.18 -28.15,38.79 -4.89,3.78 -10.24,6.96 -15.94,9.36 -13.1,4.53 -27.22,5.64 -40.93,3.78 -4.61,-0.42 -9.23,-0.85 -13.74,-1.9 -12.92,-2.92 -26.05,-5.39 -38.25,-10.73 4.29,-9.63 7.74,-19.6 11.25,-29.53 4.79,-14.99 6.89,-30.91 5.74,-46.62 11.52,-2.22 22.83,-5.47 34.45,-7.24 z"
     inkscape:connector-curvature="0"
     style="fill:#f8c5b0;stroke:#f8c5b0;stroke-width:0.2" /><path
     id="path8901"
     d="m 507.6,779.9 c 5.09,-0.81 10.25,-1.1 15.4,-0.91 21.33,0.1 42.67,0 64,0.05 7.46,0.16 15.01,-0.77 22.36,0.97 -33.24,0.37 -66.5,0.12 -99.74,0.12 -0.51,-0.06 -1.51,-0.18 -2.02,-0.23 z"
     inkscape:connector-curvature="0"
     style="fill:#140e09;stroke:#140e09;stroke-width:0.2" /><path
     sodipodi:nodetypes="ccccccccccccccccccccccccccccccccccccccccccccccccccccccccccccccccccccccccccccc"
     style="fill:#ffffff;stroke:#ffffff;stroke-width:0.2"
     inkscape:connector-curvature="0"
     id="path8903"
     d="m 509.62,780.13 c 33.24,0 66.5,0.25 99.74,-0.12 33.21,-0.03 66.41,0.02 99.62,-0.03 1.34,4.04 1.81,8.59 4.43,12.07 0.79,5.75 2.48,11.32 4.36,16.79 4.7,16.15 9.96,32.1299 14.67,48.28 3.2,10.2 6.05,20.51 9.84,30.51 1.04,2.88 2,5.79 2.7599,8.76 1.84,8.64 4.17,17.25 8.03,25.23 0.16,6.05 2.93,11.6 4.34,17.41 -23.09,1.67 -46.2599,0.37 -69.37,1.62 -30.67,0.15 -61.34,0.4 -92.0099,0.78 -28.66,0.95 -57.36,0 -86.01,1.23 -27.97,0.13 -55.94,0.31 -83.91,0.76 -7.57,-0.21 -15.13,0.65 -22.7,0.23 6.5,-12.38 13.97,-24.23 20.77,-36.45 6.61,-10.9 12.26,-22.42 19.84,-32.71 13.71,1.86 27.83,0.75 40.93,-3.78 -1.1,2.89 -2.32,5.73 -3.82,8.44 -6.09,11.03 -11.67,22.33 -17.61,33.44 -1.23,2.5099 -2.66,5.16 -2.43,8.06 1.21,2.03 3.88,1.3199 5.87,1.56 15.37,-0.29 30.76,-0.26 46.14,-0.85 15.95,-0.56 31.9301,-0.1 47.88,-0.96 6.22,-0.36 12.54,0.43 18.69,-0.81 1.92,-16.78 0.81,-33.76 1.45,-50.6201 -0.28,-2.22 0.6,-5.24 -1.45,-6.77 -3.18,-0.65 -6.45,-0.43 -9.67,-0.43 -16.34,0.29 -32.67,-0.23 -49,-0.13 -6.7,0.04 -13.41,0.14 -20.11,-0.29 13.24,-9.61 21.78,-24.03 28.15,-38.79 1.62,0.35 3.25,0.71 4.89,1.08 -0.94,8.85 -4.24,17.23 -5.13,26.09 l 2.88,-0.08 c 1.94,-8.42 4.12,-16.77 5.73,-25.26 3.01,0.63 6.03,1.24 9.06,1.82 -0.08,0.41 -0.22,1.22 -0.29,1.63 -1.23,7.08 -1.98,14.24 -2.51,21.4 0.75,-0.07 2.25,-0.21 2.99,-0.28 0.66,-7.01 1.46,-14 2.59,-20.95 22.14142,6.1787 19.53501,4.63511 21.94,24.07 l 0.84,-16.0498 c 0,0 81.8299,17.22276 2.82,-31.87891 C 560.24,797.92139 524.98,783.77 509.62,780.13 m 188.19,80.11 c -0.86,14.56 0.39,29.18 0.14,43.77 0.34,2.52 -0.64,5.77 1.43,7.72 5.24,0.55 10.32,-1.44 15.45,-2.21 0.24,-2.17 0.46,-4.35 0.35,-6.51 -1.17,-12.7 -2.42,-25.39 -3.39,-38.1 -0.27,-1.7 -0.28,-3.84 -1.94,-4.81 -4,-0.58 -8.05,-0.13 -12.04,0.14 m -21.64,3.57 c -0.08,17.59 -0.65,35.18 -0.77,52.76 1.83,0.12 3.67,0.25 5.52,0.4 0.52,-9.64 0.17,-19.3 0.88,-28.93 0.06,-8.14 -0.05,-16.31 1.37,-24.36 -2.34,-0.2 -4.68,-0.15 -7,0.13 M 615.12,864 c -1.51,1.82 -1.33,4.39 -1.67,6.61 -1.02,15.22 -2.83,30.38 -3.58,45.62 1.98,-0.04 3.98,-0.06 5.98,-0.08 1.35,-17.4901 2.88,-34.95 4.45,-52.42 -1.74,0.04 -3.47,0.05 -5.18,0.27 m 41.79,-0.09 c 1.9901,15.98 1.6201,32.13 3.04,48.15 1.76,-0.01 3.51,-0.01 5.28,0 0.53,-7.95 -0.31,-15.9 -0.66,-23.84 -0.68,-8.06 -0.19,-16.2 -1.46,-24.2 -2.08,-0.06 -4.14,-0.09 -6.2,-0.11 m -18.12,3.08 c -1.29,8.34 -0.59,16.81 -1.47,25.19 -0.39,9.11 -0.69,18.23 -0.94,27.34 1.83,0.09 3.66,0.2 5.49,0.31 0.65,-7.6 1.16,-15.21 1.22,-22.83 0.37,-10.03 1.22,-20.03 1.1299,-30.07 -1.8199,0.01 -3.6299,0.03 -5.4299,0.06 z" /><path
     id="path8905"
     d="m 394.12,781.81 c 5.03,1.06 9.87,2.83 14.9,3.9 1.15,15.71 -0.95,31.63 -5.74,46.62 -3.51,9.93 -6.96,19.9 -11.25,29.53 -1.09,1.58 -1.7,4.48 -4.15,4.12 -6,-0.3 -11.87,-1.91 -17.87,-2.29 7.08,-6.48 10.71,-15.55 14.55,-24.12 5.13,-12.34 10.67,-24.95 11.16,-38.51 0.58,-6.48 -1,-12.84 -1.6,-19.25 z"
     inkscape:connector-curvature="0"
     style="fill:#ffffff;stroke:#ffffff;stroke-width:0.2" /><path
     id="path8907"
     d="m 574.05,785.19 c 0.46,0 1.37,0 1.83,0 1.34,3.7 1.34,7.72 1.91,11.59 -0.74,0.14 -2.21,0.43 -2.94,0.5699 -0.5,-4.0099 -1.81,-8.1499 -0.8,-12.1599 z"
     inkscape:connector-curvature="0"
     style="fill:#959595;stroke:#959595;stroke-width:0.2" /><path
     id="path8911"
     d="m 713.41,792.05 c 16.1201,5.65 32.52,10.46 48.73,15.85 -0.25,2.14 -0.46,4.3 -0.83,6.44 -3.64,12.0699 -5.32,24.62 -8.02,36.92 -3.41,14.92 -4.68,30.25 -8.25,45.13 -0.7599,-2.97 -1.72,-5.88 -2.7599,-8.76 -3.79,-10 -6.64,-20.31 -9.84,-30.51 4.28,-13.48 7.4,-27.35 9.85,-41.27 -7.86,-3.37 -16.25,-5.28 -24.25,-8.24 -0.07,0.31 -0.2,0.92 -0.27,1.23 C 715.89,803.37 714.2,797.8 713.41,792.05 Z"
     inkscape:connector-curvature="0"
     style="fill:#c3c3c3;stroke:#c3c3c3;stroke-width:0.2" /><path
     id="path8917"
     d="m 718.04,807.61 c 8,2.96 16.39,4.87 24.25,8.24 -2.45,13.92 -5.57,27.79 -9.85,41.27 -4.71,-16.15 -9.97,-32.13 -14.67,-48.28 0.07,-0.31 0.2,-0.92 0.27,-1.23 z"
     inkscape:connector-curvature="0"
     style="fill:#818181;stroke:#818181;stroke-width:0.2" /><path
     id="path8919"
     d="m 753.29,851.26 c 2.7,-12.3 4.38,-24.85 8.02,-36.92 3.15,1.92 6.36,3.77 9.57,5.6 -4.02,23.95 -8.24,47.86 -12.3,71.81 -1.98,9.93 -3.06,20.03 -5.51,29.87 -3.86,-7.98 -6.19,-16.59 -8.03,-25.23 3.57,-14.88 4.84,-30.21 8.25,-45.13 z"
     inkscape:connector-curvature="0"
     style="fill:#dadada;stroke:#dadada;stroke-width:0.2" /><path
     id="path8923"
     d="m 533.93,823.64 c 1.15,0.25 2.31,0.49 3.48,0.75 -1.61,8.49 -3.79,16.84 -5.73,25.26 -0.72,0.02 -2.16,0.06 -2.88,0.08 0.89,-8.86 4.19,-17.24 5.13,-26.09 z"
     inkscape:connector-curvature="0"
     style="fill:#969696;stroke:#969696;stroke-width:0.2" /><path
     id="path8925"
     d="m 546.18,827.84 c 1.01,0.03 2.04,0.0699 3.07,0.17 -1.13,6.95 -1.93,13.94 -2.59,20.95 -0.74,0.07 -2.24,0.21 -2.99,0.28 0.53,-7.16 1.28,-14.32 2.51,-21.4 z"
     inkscape:connector-curvature="0"
     style="fill:#959595;stroke:#959595;stroke-width:0.2" /><path
     id="path8927"
     d="m 569.29,836.22 c 0.48,-0.12 1.44,-0.3799 1.92,-0.5 l 0.82,0.3101 c 0.9,5.4 1.6899,10.8199 2.2,16.29 -0.76,-0.06 -2.28,-0.18 -3.04,-0.24 -0.64,-5.2901 -1.7,-10.5301 -1.9,-15.8601 z"
     inkscape:connector-curvature="0"
     style="fill:#939393;stroke:#939393;stroke-width:0.2" /><path
     id="path8931"
     d="m 697.81,860.24 c 3.99,-0.27 8.04,-0.72 12.04,-0.14 1.66,0.97 1.67,3.11 1.94,4.81 0.97,12.71 2.22,25.4 3.39,38.1 0.11,2.16 -0.11,4.34 -0.35,6.51 -5.13,0.77 -10.21,2.76 -15.45,2.21 -2.07,-1.95 -1.09,-5.2 -1.43,-7.72 0.25,-14.59 -1,-29.21 -0.14,-43.77 z"
     inkscape:connector-curvature="0"
     style="fill:#a7a7a7;stroke:#a7a7a7;stroke-width:0.2" /><path
     id="path8933"
     d="m 484.95,870.71 c 5.7,-2.4 11.05,-5.58 15.94,-9.36 6.7,0.4301 13.41,0.33 20.11,0.29 16.33,-0.1 32.66,0.42 49,0.13 3.22,0 6.49,-0.22 9.67,0.43 2.05,1.53 1.17,4.55 1.45,6.77 -0.64,16.86 0.47,33.84 -1.45,50.6201 -6.15,1.24 -12.47,0.45 -18.69,0.81 -15.95,0.86 -31.93,0.4 -47.88,0.96 -15.38,0.59 -30.77,0.56 -46.14,0.85 -1.99,-0.2401 -4.66,0.47 -5.87,-1.56 -0.23,-2.9 1.2,-5.55 2.43,-8.06 5.94,-11.11 11.52,-22.41 17.61,-33.44 1.5,-2.7101 2.72,-5.5501 3.82,-8.4401 z"
     inkscape:connector-curvature="0"
     style="fill:#dadada;stroke:#dadada;stroke-width:0.2" /><path
     id="path8935"
     d="m 676.17,863.81 c 2.32,-0.28 4.66,-0.33 7,-0.13 -1.42,8.05 -1.31,16.22 -1.37,24.36 -0.71,9.63 -0.36,19.29 -0.88,28.93 -1.85,-0.15 -3.69,-0.28 -5.52,-0.4 0.12,-17.58 0.69,-35.17 0.77,-52.76 z"
     inkscape:connector-curvature="0"
     style="fill:#dadada;stroke:#dadada;stroke-width:0.2" /><path
     id="path8937"
     d="m 615.12,864 c 1.71,-0.22 3.44,-0.23 5.18,-0.27 -1.57,17.47 -3.1,34.93 -4.45,52.42 -2,0.02 -4,0.04 -5.98,0.08 0.75,-15.24 2.56,-30.4 3.58,-45.62 0.34,-2.22 0.16,-4.79 1.67,-6.61 z"
     inkscape:connector-curvature="0"
     style="fill:#dadada;stroke:#dadada;stroke-width:0.2" /><path
     id="path8939"
     d="m 656.91,863.91 c 2.06,0.02 4.1201,0.05 6.2,0.11 1.27,8 0.78,16.14 1.46,24.2 0.35,7.94 1.19,15.89 0.66,23.84 -1.77,-0.01 -3.52,-0.01 -5.28,0 -1.42,-16.02 -1.05,-32.17 -3.04,-48.15 z"
     inkscape:connector-curvature="0"
     style="fill:#d9dada;stroke:#d9dada;stroke-width:0.2" /><path
     id="path8941"
     d="m 638.79,866.99 c 1.8,-0.03 3.61,-0.05 5.43,-0.06 0.09,10.04 -0.7599,20.04 -1.1299,30.07 -0.06,7.62 -0.57,15.23 -1.22,22.83 -1.83,-0.11 -3.66,-0.22 -5.49,-0.31 0.25,-9.11 0.55,-18.23 0.94,-27.34 0.8799,-8.38 0.1799,-16.85 1.4699,-25.19 z"
     inkscape:connector-curvature="0"
     style="fill:#dadada;stroke:#dadada;stroke-width:0.2" /><path
     id="path8943"
     d="m 688.04,940.65 c 23.11,-1.25 46.28,0.05 69.37,-1.62 l -0.47,0.7599 c -2.15,0.08 -4.31,0.06 -6.44,0.11 1.27,3.31 2.53,6.65 3.68,10.02 -2.1,0.36 -4.96,-0.88 -6.58,0.62 -3.38,8.39 -5.44,17.26 -8.46,25.79 -4.6,-1.68 -9.21,-3.34 -13.91,-4.71 1.96,-7.12 4.87,-13.9 7.42,-20.81 -11.55,-0.78 -23.12,0.32 -34.6801,0.29 -16.09,1.2401 -32.24,0.6 -48.35,1.5 -11.95,0.6801 -23.92,0.2401 -35.87,0.98 -9.7,0.65 -19.43,0.18 -29.14,0.57 -0.07,0.5099 -0.21,1.54 -0.29,2.06 -0.64,-0.01 -1.91,-0.04 -2.55,-0.05 -3.23,-0.53 -6.45,-1.17 -9.72,-1.15 -13.94,-0.16 -27.85,1.04 -41.78,0.96 -7.08,-0.93 -14.22,-0.67 -21.34,-0.73 -2.85,-0.08 -5.6,0.69 -8.29,1.51 -13.79,0.55 -27.58,1.09 -41.37,1.21 -7.41,-0.97 -14.89,-0.59 -22.33,-0.73 -2.55,-0.11 -4.99,0.66 -7.37,1.45 -1.67,0.18 -3.34,0.32 -5.01,0.48 0.36,-5.27 0.92,-10.5099 1.55,-15.74 27.97,-0.45 55.94,-0.63 83.91,-0.76 28.65,-1.23 57.35,-0.28 86.01,-1.23 C 626.7,941.05 657.37,940.8 688.04,940.65 Z"
     inkscape:connector-curvature="0"
     style="fill:#d9d9d9;stroke:#d9d9d9;stroke-width:0.2" /><path
     id="path8945"
     d="m 697.97,951.1 c 11.5601,0.03 23.13,-1.0699 34.6801,-0.29 -2.55,6.91 -5.46,13.69 -7.42,20.81 -0.56,1.75 -1.09,3.52 -1.61,5.3 -47.33,-6.6 -94.56,-13.88 -141.85,-20.76 0.64,0.01 1.91,0.04 2.55,0.05 0.08,-0.52 0.22,-1.55 0.29,-2.06 9.71,-0.39 19.44,0.08 29.14,-0.57 11.95,-0.74 23.92,-0.3 35.87,-0.98 16.1099,-0.9 32.2599,-0.26 48.3499,-1.5 z"
     inkscape:connector-curvature="0"
     style="fill:#c3c3c3;stroke:#c3c3c3;stroke-width:0.2" /><path
     id="path8947"
     d="m 500.64,956.75 c 2.69,-0.82 5.44,-1.59 8.29,-1.51 7.12,0.06 14.26,-0.2 21.34,0.73 -9.88,0.25 -19.76,0.63 -29.63,0.78 z"
     inkscape:connector-curvature="0"
     style="fill:#ffffff;stroke:#ffffff;stroke-width:0.2" /><path
     id="path8949"
     d="m 429.57,958.68 c 2.38,-0.79 4.82,-1.56 7.37,-1.45 7.44,0.14 14.92,-0.24 22.33,0.73 -9.9,0.22 -19.8,0.69 -29.7,0.72 z"
     inkscape:connector-curvature="0"
     style="fill:#ffffff;stroke:#ffffff;stroke-width:0.2" /><g
     id="text9508"
     style="font-style:normal;font-variant:normal;font-weight:normal;font-stretch:normal;font-size:20.85088921px;line-height:1.25;font-family:'OCR A Extended';-inkscape-font-specification:'OCR A Extended';letter-spacing:0px;word-spacing:0px;fill:#737c79;fill-opacity:1;stroke:none;stroke-width:0.52127224"
     transform="matrix(0.20605153,0.87301827,-1.0812004,0.27222466,5.8296791,0.97161318)"
     aria-label="RESUME"><path
       inkscape:connector-curvature="0"
       id="path9510"
       d="m 1044.3241,-419.71338 c -3.0253,-1.10803 -6.3617,-10.55736 -9.4873,-3.74056 1.3207,3.2601 -2.263,4.97826 -1.7962,0.68377 0.098,-3.45978 0.055,-6.92133 0.064,-10.38223 3.9027,-0.2509 13.1831,-0.84742 9.9158,5.67783 -2.5369,3.0128 0.9277,4.84055 1.3038,7.76119 z m -9.4379,-7.35075 c 3.4087,2.08482 10.6541,-3.02348 4.3705,-4.46514 -3.6094,-1.60451 -5.3076,1.25675 -4.3705,4.46514 z"
       style="font-style:normal;font-variant:normal;font-weight:normal;font-stretch:normal;font-family:Raavi;-inkscape-font-specification:Raavi;fill:#737c79;fill-opacity:1;stroke-width:0.52127224" /><path
       inkscape:connector-curvature="0"
       id="path9512"
       d="m 1056.7043,-419.71338 c -3.3462,0 -6.6923,0 -10.0385,0 0,-4.47968 0,-8.95937 0,-13.43905 3.2444,0 6.4887,0 9.7331,0 -1.4032,3.99041 -11.1934,-1.23396 -7.4532,5.68347 1.6573,-0.13883 10.0588,-0.42411 5.0835,1.68469 -3.5095,-2.0957 -8.3303,2.22619 -4.4363,4.56181 2.3649,-0.17757 4.7412,-0.0516 7.1114,-0.0893 0,0.53281 0,1.06562 0,1.59843 z"
       style="font-style:normal;font-variant:normal;font-weight:normal;font-stretch:normal;font-family:Raavi;-inkscape-font-specification:Raavi;fill:#737c79;fill-opacity:1;stroke-width:0.52127224" /><path
       inkscape:connector-curvature="0"
       id="path9514"
       d="m 1064.2892,-419.47921 c -3.9257,2.21741 -7.4387,-7.20187 -2.3821,-2.16337 3.9905,2.9187 8.0336,-3.60853 2.2163,-4.18725 -7.2145,0.38389 -5.4097,-9.7898 1.1926,-7.4637 3.7954,0.2104 4.0805,6.00195 0.1849,1.98092 -4.4478,-3.84119 -5.6857,5.10553 -0.2692,4.01815 6.0461,0.35112 4.7507,8.31443 -0.9425,7.81525 z"
       style="font-style:normal;font-variant:normal;font-weight:normal;font-stretch:normal;font-family:Raavi;-inkscape-font-specification:Raavi;fill:#737c79;fill-opacity:1;stroke-width:0.52127224" /><path
       inkscape:connector-curvature="0"
       id="path9516"
       d="m 1077.036,-419.47921 c -6.4246,0.36265 -5.6982,-8.05798 -5.2461,-12.25755 3.8176,-2.2795 0.2342,6.66364 2.16,8.87995 4.2339,5.42887 8.2672,-2.37848 6.5822,-6.61465 -1.2172,-5.00564 3.1775,-3.21098 1.7205,0.67244 0.439,3.76676 0.221,9.90767 -5.2166,9.31981 z"
       style="font-style:normal;font-variant:normal;font-weight:normal;font-stretch:normal;font-family:Raavi;-inkscape-font-specification:Raavi;fill:#737c79;fill-opacity:1;stroke-width:0.52127224" /><path
       inkscape:connector-curvature="0"
       id="path9518"
       d="m 1097.9683,-419.71338 c -3.603,-1.75835 -1.0475,-7.03725 -1.7002,-10.51066 -1.4227,-0.39886 -1.4722,8.63563 -4.824,10.39271 -2.6256,-2.45359 -2.7645,-9.36259 -4.4408,-10.1377 0,3.41855 0,6.8371 0,10.25565 -3.5875,-1.7733 -1.0383,-7.03734 -1.6901,-10.51066 -1.3875,-4.89799 4.4036,-2.30474 4.1928,1.28543 0.1073,2.26088 2.3939,9.34771 3.3999,3.30275 0.034,-3.0345 3.7687,-11.53163 5.1112,-4.83173 -0.1128,3.58376 -0.017,7.16998 -0.049,10.75421 z"
       style="font-style:normal;font-variant:normal;font-weight:normal;font-stretch:normal;font-family:Raavi;-inkscape-font-specification:Raavi;fill:#737c79;fill-opacity:1;stroke-width:0.52127224" /><path
       inkscape:connector-curvature="0"
       id="path9520"
       d="m 1111.0307,-419.71338 c -3.3462,0 -6.6924,0 -10.0386,0 0,-4.47968 0,-8.95937 0,-13.43905 3.2444,0 6.4887,0 9.7331,0 -1.4035,3.99025 -11.1933,-1.2338 -7.4531,5.68347 1.6573,-0.13883 10.0588,-0.42411 5.0835,1.68469 -3.5095,-2.0957 -8.3303,2.22619 -4.4363,4.56181 2.3649,-0.17757 4.7412,-0.0516 7.1114,-0.0893 0,0.53281 0,1.06562 0,1.59843 z"
       style="font-style:normal;font-variant:normal;font-weight:normal;font-stretch:normal;font-family:Raavi;-inkscape-font-specification:Raavi;fill:#737c79;fill-opacity:1;stroke-width:0.52127224" /></g><path
     style="fill:#dadada;stroke:#dadada;stroke-width:0.2"
     inkscape:connector-curvature="0"
     d="m 655.32257,794.52049 c 2.28844,-0.47315 4.61605,-0.71878 6.96458,-0.71528 -0.74142,8.14059 0.0519,16.27273 0.67319,24.3892 0.0983,9.65564 1.25545,19.25247 1.5439,28.90218 -1.85607,0.005 -3.7005,0.0297 -5.53412,0.0633 -1.35148,-17.52838 -2.25538,-35.10438 -3.64755,-52.63939 z"
     id="path9553" /><path
     style="fill:#d9dada;stroke:#d9dada;stroke-width:0.2"
     inkscape:connector-curvature="0"
     d="m 636.13849,796.23177 c 2.05445,-0.15236 4.10983,-0.29493 6.18745,-0.40922 1.93497,7.86568 2.12783,16.01813 3.47988,23.99297 1.01318,7.88286 2.51548,15.73469 2.65257,23.70116 -1.76463,0.13821 -3.5085,0.28455 -5.26148,0.44182 -2.75553,-15.845 -3.73823,-31.96931 -7.05842,-47.72676 z"
     id="path9555" /><path
     style="fill:#dadada;stroke:#dadada;stroke-width:0.2"
     inkscape:connector-curvature="0"
     d="m 618.33977,800.81722 c 1.79117,-0.18052 3.59316,-0.35191 5.40593,-0.51416 0.92981,9.99725 0.91971,20.0333 1.39025,30.05909 0.57785,7.59829 0.70645,15.22427 0.69465,22.85201 -1.83278,0.0434 -3.66557,0.0871 -5.49668,0.15055 -0.51315,-9.09899 -0.97738,-18.2121 -1.35104,-27.32279 0.17559,-8.42422 -1.23072,-16.80595 -0.64311,-25.22464 z"
     id="path9557" /></g></g>
</svg>